# xmcd CD database file
#
# Track frame offsets:
#	150
#	23698
#	47090
#
# Disc length: 930 seconds
#
# Revision: 0
# Processed by: cddbd v1.5PL3 Copyright (c) Steve Scherf et al.
# Submitted via: CDex 1.51
#
DISCID=1a03a003
DTITLE=CHAGE and ASKA - 夢の飛礫
DYEAR=2001
DGENRE=JPop
TTITLE0=夢の飛礫
TTITLE1=HOTEL
TTITLE2=砂時計のくびれた場所
EXTD=YEAR: 2001
EXTT0=
EXTT1=
EXTT2=
PLAYORDER=
